<svg width="422" height="114" viewBox="0 0 422 114" fill="none" xmlns="http://www.w3.org/2000/svg">
<path d="M245.465 57.5177C236.764 57.5177 230.475 56.3978 226.599 54.158C222.722 51.9182 220.784 48.0846 220.784 42.6573C220.784 39.8144 221.387 37.5315 222.593 35.8086C223.799 33.9995 225.177 32.6211 226.728 31.6735C228.365 30.7259 229.829 30.1229 231.121 29.8644L229.958 27.5384C227.202 27.5384 224.962 26.5477 223.239 24.5664C221.516 22.4988 220.655 19.699 220.655 16.167C220.655 12.6349 221.559 9.87822 223.368 7.89683C225.263 5.91544 227.977 4.92474 231.509 4.92474H288.237C292.458 4.92474 295.56 5.91544 297.541 7.89683C299.522 9.87822 300.513 12.6349 300.513 16.167C300.513 19.699 299.522 22.4988 297.541 24.5664C295.56 26.6339 292.458 27.6677 288.237 27.6677H242.751C241.115 27.6677 239.908 27.9692 239.133 28.5722C238.444 29.1752 238.53 30.209 239.392 31.6735C240.167 33.138 241.244 33.9133 242.622 33.9995C244 33.9995 246.326 33.9995 249.6 33.9995H290.175C295.43 33.9995 299.092 34.9471 301.159 36.8424C303.313 38.7376 304.39 41.7097 304.39 45.7586C304.39 49.5491 303.313 52.4781 301.159 54.5456C299.092 56.527 295.43 57.5177 290.175 57.5177H245.465ZM210.446 73.0243C210.446 69.4922 211.437 66.6924 213.418 64.6249C215.4 62.5574 218.285 61.5236 222.076 61.5236H305.036C308.826 61.5236 311.626 62.5574 313.435 64.6249C315.331 66.6924 316.278 69.4922 316.278 73.0243C316.278 76.5563 315.331 79.4422 313.435 81.6821C311.626 83.8358 308.826 84.9126 305.036 84.9126H270.792C269.586 84.9126 268.811 85.3433 268.466 86.2048C268.122 86.9801 268.423 87.7124 269.371 88.4016C270.491 89.2631 271.74 90.5553 273.118 92.2782C274.497 93.915 275.186 96.2841 275.186 99.3854C275.186 103.09 274.023 106.191 271.697 108.689C269.457 111.188 265.796 112.437 260.713 112.437C256.492 112.437 253.003 111.188 250.246 108.689C247.489 106.191 246.111 103.09 246.111 99.3854C246.111 96.8871 246.499 94.8626 247.274 93.312C248.136 91.7613 249.083 90.5553 250.117 89.6938C251.237 88.7462 252.184 88.1001 252.96 87.7555C253.821 87.4109 254.252 87.2386 254.252 87.2386L252.831 84.9126H221.817C218.113 84.9126 215.27 83.8358 213.289 81.6821C211.394 79.4422 210.446 76.5563 210.446 73.0243Z" fill="#4B4B4B"/>
<path d="M172.462 12.793C172.462 9.26096 173.625 6.41809 175.951 4.26441C178.277 2.02458 181.422 0.904663 185.385 0.904663C189.261 0.904663 192.319 2.02458 194.559 4.26441C196.799 6.50424 197.919 9.43325 197.919 13.0514V16.5404L199.857 17.7034C200.46 15.2913 201.494 13.396 202.959 12.0177C204.423 10.5532 206.448 9.82092 209.032 9.82092C211.789 9.82092 214.029 10.8116 215.752 12.793C217.474 14.6882 218.336 17.2727 218.336 20.5463C218.336 23.9922 217.388 26.6627 215.493 28.558C213.684 30.3671 211.53 31.2716 209.032 31.2716C207.051 31.2716 205.371 30.7547 203.992 29.721C202.614 28.6011 201.537 27.3519 200.762 25.9736C200.245 25.1121 199.642 24.8106 198.953 25.069C198.264 25.2413 197.919 25.9305 197.919 27.1365V40.4463L199.857 41.6093C200.46 39.1972 201.494 37.3019 202.959 35.9236C204.423 34.5452 206.448 33.856 209.032 33.856C211.789 33.856 214.029 34.8467 215.752 36.8281C217.474 38.7234 218.336 41.3078 218.336 44.5814C218.336 48.0273 217.388 50.6548 215.493 52.4639C213.684 54.273 211.53 55.1775 209.032 55.1775C207.051 55.1775 205.371 54.6606 203.992 53.6269C202.614 52.5931 201.537 51.387 200.762 50.0087C200.245 49.0611 199.642 48.7165 198.953 48.9749C198.264 49.1472 197.919 49.8364 197.919 51.0424V53.8853C197.919 57.1589 196.756 59.9156 194.43 62.1555C192.104 64.3953 189.089 65.5152 185.385 65.5152C181.68 65.5152 178.579 64.3953 176.081 62.1555C173.669 59.9156 172.462 57.1589 172.462 53.8853V12.793ZM109.79 43.9353C109.446 38.5942 109.316 33.813 109.403 29.5917C109.575 25.3705 109.833 20.9339 110.178 16.282C110.522 11.8023 111.901 8.48564 114.313 6.33195C116.725 4.17826 119.697 3.10142 123.229 3.10142C126.331 3.10142 128.872 4.09212 130.853 6.07351C132.921 7.96875 133.955 10.5532 133.955 13.8268C133.955 15.8943 133.524 17.6603 132.662 19.1248C131.887 20.5032 130.939 21.7523 129.819 22.8722C128.786 23.906 127.838 24.9398 126.977 25.9736C126.201 26.9212 125.814 27.998 125.814 29.2041C125.814 31.6162 126.589 33.253 128.14 34.1145C129.69 34.8898 132.016 35.2775 135.118 35.2775H151.399C156.138 35.2775 160.057 36.2682 163.159 38.2496C166.26 40.2309 167.811 43.7199 167.811 48.7165C167.811 58.2788 162.383 63.06 151.529 63.06H134.471C126.89 63.06 120.989 61.5524 116.768 58.5373C112.547 55.5221 110.221 50.6548 109.79 43.9353ZM158.248 113.198C148.169 113.198 140.243 112.121 134.471 109.967C128.786 107.814 124.737 104.928 122.325 101.309C119.999 97.6051 118.836 93.5562 118.836 89.1627C118.836 85.7168 119.353 82.5724 120.386 79.7295C121.506 76.8005 123.488 74.3022 126.331 72.2347C129.173 70.081 133.179 68.4442 138.348 67.3243C143.517 66.1182 150.15 65.5152 158.248 65.5152C166.174 65.5152 172.678 66.1182 177.761 67.3243C182.843 68.4442 186.806 70.081 189.649 72.2347C192.578 74.3022 194.602 76.8005 195.722 79.7295C196.842 82.5724 197.402 85.7168 197.402 89.1627C197.402 93.5562 196.239 97.6051 193.913 101.309C191.587 104.928 187.581 107.814 181.896 109.967C176.21 112.121 168.327 113.198 158.248 113.198Z" fill="#4B4B4B"/>
<path d="M137.221 80.2922C144.606 77.3537 161.894 73.7368 178.974 80.2305L179.812 80.5586L180.013 80.6497C180.98 81.1552 181.426 82.3218 181.012 83.3573C180.598 84.3928 179.47 84.9302 178.421 84.629L178.214 84.5575L177.437 84.2546C161.649 78.2549 145.525 81.63 138.849 84.2799L138.223 84.5379C137.13 85.0063 135.864 84.4996 135.395 83.4064C134.927 82.3131 135.433 81.0468 136.527 80.5782L137.221 80.2922Z" fill="#FFD014"/>
<path d="M375.216 12.793C375.216 9.26096 376.379 6.41809 378.705 4.26441C381.031 2.02458 384.175 0.904663 388.138 0.904663C392.015 0.904663 395.073 2.02458 397.313 4.26441C399.553 6.50424 400.672 9.43325 400.672 13.0514V16.5404L402.611 17.7034C403.214 15.2913 404.248 13.396 405.712 12.0177C407.177 10.5532 409.201 9.82092 411.785 9.82092C414.542 9.82092 416.782 10.8116 418.505 12.793C420.228 14.6882 421.089 17.2727 421.089 20.5463C421.089 23.9922 420.142 26.6627 418.247 28.558C416.437 30.3671 414.284 31.2716 411.785 31.2716C409.804 31.2716 408.124 30.7547 406.746 29.721C405.367 28.6011 404.291 27.3519 403.515 25.9736C402.998 25.1121 402.395 24.8106 401.706 25.069C401.017 25.2413 400.672 25.9305 400.672 27.1365V40.4463L402.611 41.6093C403.214 39.1972 404.248 37.3019 405.712 35.9236C407.177 34.5452 409.201 33.856 411.785 33.856C414.542 33.856 416.782 34.8467 418.505 36.8281C420.228 38.7234 421.089 41.3078 421.089 44.5814C421.089 48.0273 420.142 50.6548 418.247 52.4639C416.437 54.273 414.284 55.1775 411.785 55.1775C409.804 55.1775 408.124 54.6606 406.746 53.6269C405.367 52.5931 404.291 51.387 403.515 50.0087C402.998 49.0611 402.395 48.7165 401.706 48.9749C401.017 49.1472 400.672 49.8364 400.672 51.0424V53.8853C400.672 57.1589 399.509 59.9156 397.183 62.1555C394.857 64.3953 391.842 65.5152 388.138 65.5152C384.434 65.5152 381.332 64.3953 378.834 62.1555C376.422 59.9156 375.216 57.1589 375.216 53.8853V12.793ZM312.544 43.9353C312.199 38.5942 312.07 33.813 312.156 29.5917C312.328 25.3705 312.587 20.9339 312.931 16.282C313.276 11.8023 314.654 8.48564 317.066 6.33195C319.478 4.17826 322.451 3.10142 325.983 3.10142C329.084 3.10142 331.625 4.09212 333.607 6.07351C335.674 7.96875 336.708 10.5532 336.708 13.8268C336.708 15.8943 336.277 17.6603 335.416 19.1248C334.64 20.5032 333.693 21.7523 332.573 22.8722C331.539 23.906 330.592 24.9398 329.73 25.9736C328.955 26.9212 328.567 27.998 328.567 29.2041C328.567 31.6162 329.342 33.253 330.893 34.1145C332.444 34.8898 334.77 35.2775 337.871 35.2775H354.153C358.891 35.2775 362.811 36.2682 365.912 38.2496C369.013 40.2309 370.564 43.7199 370.564 48.7165C370.564 58.2788 365.137 63.06 354.282 63.06H337.225C329.644 63.06 323.743 61.5524 319.522 58.5373C315.3 55.5221 312.974 50.6548 312.544 43.9353ZM361.002 113.198C350.922 113.198 342.997 112.121 337.225 109.967C331.539 107.814 327.49 104.928 325.078 101.309C322.752 97.6051 321.589 93.5562 321.589 89.1627C321.589 85.7168 322.106 82.5724 323.14 79.7295C324.26 76.8005 326.241 74.3022 329.084 72.2347C331.927 70.081 335.933 68.4442 341.102 67.3243C346.27 66.1182 352.904 65.5152 361.002 65.5152C368.927 65.5152 375.431 66.1182 380.514 67.3243C385.597 68.4442 389.559 70.081 392.402 72.2347C395.331 74.3022 397.356 76.8005 398.476 79.7295C399.596 82.5724 400.156 85.7168 400.156 89.1627C400.156 93.5562 398.993 97.6051 396.667 101.309C394.341 104.928 390.335 107.814 384.649 109.967C378.963 112.121 371.081 113.198 361.002 113.198Z" fill="#4B4B4B"/>
<path d="M383.138 98.5255C366.058 105.019 348.771 101.402 341.385 98.4638L340.691 98.1778C339.597 97.7093 339.091 96.4429 339.559 95.3497C340.028 94.2565 341.294 93.7498 342.387 94.2182L343.013 94.4762C349.689 97.1261 365.813 100.501 381.601 94.5014L382.378 94.1985L382.585 94.127C383.635 93.8258 384.762 94.3633 385.176 95.3988C385.59 96.4342 385.144 97.6008 384.177 98.1063L383.976 98.1974L383.138 98.5255Z" fill="#FFD014"/>
<path d="M0 21.7091C0 17.9187 1.03377 15.1189 3.10131 13.3098C5.16884 11.4145 7.45175 10.4669 9.95003 10.4669H16.5403V9.43314C16.5403 6.15954 17.5741 3.79049 19.6416 2.32598C21.7953 0.775325 24.7243 0 28.4286 0C31.9607 0 34.7174 0.775325 36.6988 2.32598C38.7663 3.79049 39.8001 6.24569 39.8001 9.69158V10.4669H47.941C51.4731 10.4669 54.359 11.4145 56.5988 13.3098C58.8387 15.1189 59.9586 17.9187 59.9586 21.7091C59.9586 25.6719 58.8387 28.5148 56.5988 30.2377C54.359 31.8745 51.4731 32.6929 47.941 32.6929H47.6826V32.8222C48.0272 32.9083 48.8887 33.4683 50.267 34.502C51.7315 35.4497 53.1099 37.0434 54.4021 39.2832C55.7804 41.523 56.4696 44.6244 56.4696 48.5871C56.4696 53.4975 55.3066 57.4603 52.9807 60.4755C50.7408 63.4906 47.6395 65.6874 43.6767 67.0658C39.8001 68.4441 35.3204 69.1333 30.2377 69.1333C21.5369 69.1333 14.6881 67.5396 9.69158 64.3521C4.78118 61.1647 2.32598 56.4265 2.32598 50.1378C2.32598 46.3473 3.05823 43.1168 4.52274 40.4462C6.07339 37.6895 8.31322 35.9665 11.2422 35.2774L10.2085 32.6929H9.95003C7.5379 32.6929 5.25499 31.8745 3.10131 30.2377C1.03377 28.5148 0 25.6719 0 21.7091ZM78.8528 77.5327C75.1485 77.5327 72.1333 76.4127 69.8073 74.1729C67.4813 71.9331 66.3183 69.1764 66.3183 65.9028V12.5344C66.3183 9.0024 67.4383 6.15954 69.6781 4.00586C71.9179 1.76602 74.9762 0.646107 78.8528 0.646107C82.6433 0.646107 85.5723 1.76602 87.6398 4.00586C89.7935 6.24568 90.8704 9.1747 90.8704 12.7929V32.9514L92.6795 33.7267C93.2825 31.0561 94.3163 28.9886 95.7808 27.5241C97.3314 25.9734 99.3559 25.1981 101.854 25.1981C104.352 25.1981 106.463 26.2319 108.186 28.2994C109.909 30.2808 110.77 33.0375 110.77 36.5696C110.77 40.1878 109.823 42.9876 107.928 44.9689C106.118 46.9503 104.094 47.941 101.854 47.941C99.7866 47.941 98.0637 47.4241 96.6853 46.3904C95.3931 45.2705 94.4024 43.9352 93.7132 42.3845C93.1102 41.4369 92.4641 41.0923 91.7749 41.3508C91.1719 41.523 90.8704 42.2122 90.8704 43.4183V65.9028C90.8704 69.1764 89.7504 71.9331 87.5106 74.1729C85.2708 76.4127 82.3848 77.5327 78.8528 77.5327ZM9.69158 90.584C9.60544 89.1195 9.56236 87.7411 9.56236 86.4489C9.64851 85.1567 9.77773 83.6491 9.95003 81.9262C10.6392 75.4651 14.602 72.2346 21.8384 72.2346C25.4566 72.2346 28.2564 73.053 30.2377 74.6898C32.2191 76.2405 33.2098 78.2649 33.2098 80.7632C33.2098 82.1415 33.5113 83.3045 34.1144 84.2522C34.8035 85.1136 36.6126 85.5444 39.5417 85.5444H75.5944C79.6433 85.5444 82.7877 86.5781 85.0275 88.6457C87.2673 90.6271 88.3872 93.8576 88.3872 98.3373C88.3872 102.558 87.2673 105.832 85.0275 108.158C82.7877 110.484 79.6433 111.647 75.5944 111.647H33.2098C28.1271 111.647 23.8628 111.001 20.4169 109.709C17.0572 108.503 14.4728 106.349 12.6637 103.248C10.8546 100.232 9.86388 96.0113 9.69158 90.584Z" fill="#4B4B4B"/>
<path d="M12.3625 42.3405C18.368 38.93 32.4381 34.7221 46.3293 42.2591L47.0135 42.6391L47.1986 42.7583C48.0869 43.3925 48.3684 44.6096 47.8155 45.578C47.2626 46.546 46.072 46.9219 45.0744 46.4796L44.8767 46.38L44.2793 46.0463C32.1037 39.4421 19.6763 43.1479 14.5288 46.0631L14.045 46.3464C13.0304 46.9668 11.7057 46.6473 11.0851 45.6327C10.4647 44.618 10.7842 43.2934 11.7988 42.6728L12.3625 42.3405Z" fill="#FFD014"/>
</svg>
